<?xml version="1.0" standalone="no"?>
<!DOCTYPE svg PUBLIC "-//W3C//DTD SVG 20010904//EN"
 "http://www.w3.org/TR/2001/REC-SVG-20010904/DTD/svg10.dtd">
<svg version="1.0" xmlns="http://www.w3.org/2000/svg"
 width="162.000000pt" height="162.000000pt" viewBox="0 0 162.000000 162.000000"
 preserveAspectRatio="xMidYMid meet">

<g transform="translate(0.000000,162.000000) scale(0.100000,-0.100000)"
fill="#000000" stroke="none">
<path d="M830 1505 c-149 -34 -209 -73 -397 -259 l-143 -140 0 98 c0 101 -9
136 -36 136 -20 0 -151 -125 -170 -162 -20 -39 -20 -436 0 -464 13 -17 30 -19
214 -22 147 -2 207 0 231 10 47 20 183 157 179 182 -3 19 -11 21 -116 26
l-114 5 145 142 c173 170 201 187 327 187 77 1 92 -2 153 -32 155 -76 226
-256 166 -419 -20 -52 -45 -81 -262 -300 l-241 -243 30 -31 c16 -17 58 -60 94
-95 l65 -65 251 253 c232 235 253 259 288 332 163 340 -8 736 -366 848 -84 25
-216 32 -298 13z"/>
</g>
</svg>
