<?xml version="1.0" standalone="no"?>
<!DOCTYPE svg PUBLIC "-//W3C//DTD SVG 20010904//EN"
 "http://www.w3.org/TR/2001/REC-SVG-20010904/DTD/svg10.dtd">
<svg version="1.0" xmlns="http://www.w3.org/2000/svg"
 width="188.000000pt" height="188.000000pt" viewBox="0 0 188.000000 188.000000"
 preserveAspectRatio="xMidYMid meet">

<g transform="translate(0.000000,188.000000) scale(0.100000,-0.100000)"
fill="#000000" stroke="none">
<path d="M193 1687 c-118 -119 -133 -137 -133 -168 0 -31 34 -67 460 -494 253
-253 460 -464 460 -468 0 -4 -135 -7 -300 -7 -294 0 -299 0 -311 -21 -10 -19
7 -39 188 -221 109 -110 211 -206 226 -214 23 -13 104 -15 497 -15 301 0 476
4 489 10 10 6 22 18 25 28 4 9 7 228 7 485 0 392 -2 472 -15 495 -8 15 -104
117 -214 226 -182 181 -202 198 -221 188 -21 -12 -21 -17 -21 -311 0 -165 -3
-300 -7 -300 -4 0 -215 207 -468 460 -427 426 -463 460 -494 460 -31 0 -49
-15 -168 -133z"/>
</g>
</svg>
